<?xml version="1.0" encoding="UTF-8" standalone="no"?>
<svg width="141px" height="26px" viewBox="0 0 141 26" version="1.1" xmlns="http://www.w3.org/2000/svg" xmlns:xlink="http://www.w3.org/1999/xlink">
    <!-- Generator: Sketch 3.8.3 (29802) - http://www.bohemiancoding.com/sketch -->
    <title>logo-dark</title>
    <desc>Created with Sketch.</desc>
    <defs></defs>
    <g id="Gourmet-Light" stroke="none" stroke-width="1" fill="none" fill-rule="evenodd">
        <path d="M0,24.9 L0,23.76 C0.7600038,23.7399999 1.37499765,23.6850005 1.845,23.595 C2.31500235,23.5049996 2.6799987,23.3350013 2.94,23.085 C3.2000013,22.8349988 3.37499955,22.4950022 3.465,22.065 C3.55500045,21.6349979 3.6,21.0600036 3.6,20.34 L3.6,6.36 C3.6,5.6599965 3.56500035,5.09500215 3.495,4.665 C3.42499965,4.23499785 3.28500105,3.89500125 3.075,3.645 C2.86499895,3.39499875 2.560002,3.22500045 2.16,3.135 C1.759998,3.04499955 1.2400032,2.9800002 0.6,2.94 L0.6,1.8 L11.13,1.8 C12.930009,1.8 14.5949923,2.099997 16.125,2.7 C17.6550077,3.300003 18.9749944,4.1299947 20.085,5.19 C21.1950055,6.2500053 22.0599969,7.5099927 22.68,8.97 C23.3000031,10.4300073 23.61,12.0199914 23.61,13.74 C23.61,15.3800082 23.3200029,16.8849932 22.74,18.255 C22.1599971,19.6250069 21.3450052,20.7999951 20.295,21.78 C19.2449948,22.7600049 17.9900073,23.5249973 16.53,24.075 C15.0699927,24.6250028 13.4700087,24.9 11.73,24.9 L0,24.9 Z M7.26,3.27 C6.9199983,3.27 6.75,3.4399983 6.75,3.78 L6.75,20.01 C6.75,22.2900114 8.2399851,23.43 11.22,23.43 C13.9600137,23.43 16.0599927,22.6150082 17.52,20.985 C18.9800073,19.3549919 19.71,16.9600158 19.71,13.8 C19.71,12.1399917 19.510002,10.6600065 19.11,9.36 C18.709998,8.0599935 18.1350037,6.9600045 17.385,6.06 C16.6349963,5.1599955 15.7300053,4.4700024 14.67,3.99 C13.6099947,3.5099976 12.4100067,3.27 11.07,3.27 L7.26,3.27 Z M41.04,22.11 C39.3399915,24.1700103 37.2300126,25.2 34.71,25.2 C33.5299941,25.2 32.4600048,25.005002 31.5,24.615 C30.5399952,24.2249981 29.7150034,23.6750036 29.025,22.965 C28.3349965,22.2549965 27.8000019,21.405005 27.42,20.415 C27.0399981,19.4249951 26.85,18.330006 26.85,17.13 C26.85,15.9099939 27.049998,14.7800052 27.45,13.74 C27.850002,12.6999948 28.4149963,11.8100037 29.145,11.07 C29.8750036,10.3299963 30.7449949,9.7500021 31.755,9.33 C32.765005,8.9099979 33.869994,8.7 35.07,8.7 C37.0100097,8.7 38.5099947,9.22499475 39.57,10.275 C40.6300053,11.3250053 41.16,12.8299902 41.16,14.79 C41.16,15.0700014 41.1050005,15.2399997 40.995,15.3 C40.8849994,15.3600003 40.630002,15.39 40.23,15.39 L30.36,15.39 C30.3199998,15.5500008 30.2900001,15.7449989 30.27,15.975 C30.2499999,16.2050012 30.24,16.4599986 30.24,16.74 C30.24,17.7800052 30.3649987,18.7249958 30.615,19.575 C30.8650012,20.4250043 31.2249976,21.149997 31.695,21.75 C32.1650023,22.350003 32.7249967,22.8149984 33.375,23.145 C34.0250032,23.4750017 34.749996,23.64 35.55,23.64 C36.3900042,23.64 37.1699964,23.4550019 37.89,23.085 C38.6100036,22.7149982 39.3499962,22.1100042 40.11,21.27 L41.04,22.11 Z M36.09,14.01 C36.490002,14.01 36.8099988,14.0000001 37.05,13.98 C37.2900012,13.9599999 37.4699994,13.9200003 37.59,13.86 C37.7100006,13.7999997 37.7899998,13.7150006 37.83,13.605 C37.8700002,13.4949995 37.89,13.3500009 37.89,13.17 C37.89,12.2499954 37.595003,11.5150028 37.005,10.965 C36.414997,10.4149973 35.6100051,10.14 34.59,10.14 C32.4299892,10.14 31.0900026,11.4299871 30.57,14.01 L36.09,14.01 Z M32.58,5.37 L36.48,1.8 C37.2000036,1.1399967 37.8699969,0.81 38.49,0.81 C38.8300017,0.81 39.104999,0.8999991 39.315,1.08 C39.5250011,1.2600009 39.63,1.5199983 39.63,1.86 C39.63,2.1800016 39.4950013,2.46499875 39.225,2.715 C38.9549987,2.96500125 38.5800024,3.1999989 38.1,3.42 L33.99,5.37 L32.58,5.37 Z M48.84,20.22 C48.84,20.9800038 48.8699997,21.5899977 48.93,22.05 C48.9900003,22.5100023 49.114999,22.8699987 49.305,23.13 C49.4950009,23.3900013 49.7649982,23.5699995 50.115,23.67 C50.4650017,23.7700005 50.9299971,23.8299999 51.51,23.85 L51.51,24.9 L43.23,24.9 L43.23,23.85 C43.830003,23.8299999 44.3099982,23.7650006 44.67,23.655 C45.0300018,23.5449995 45.3149989,23.3700012 45.525,23.13 C45.735001,22.8899988 45.8749996,22.5550022 45.945,22.125 C46.0150003,21.6949979 46.05,21.1300035 46.05,20.43 L46.05,7.5 C46.05,6.4199946 46.0350002,5.51500365 46.005,4.785 C45.9749998,4.05499635 45.9300003,3.5600013 45.87,3.3 C45.7699995,2.8399977 45.5350018,2.5300008 45.165,2.37 C44.7949981,2.2099992 44.1300048,2.13 43.17,2.13 L43.17,1.11 L48.84,0 L48.84,20.22 Z M59.16,20.13 C59.16,20.9100039 59.1949996,21.5349977 59.265,22.005 C59.3350003,22.4750024 59.469999,22.8449987 59.67,23.115 C59.870001,23.3850014 60.1499982,23.5699995 60.51,23.67 C60.8700018,23.7700005 61.349997,23.8299999 61.95,23.85 L61.95,24.9 L53.34,24.9 L53.34,23.85 C53.940003,23.8299999 54.4299981,23.7650006 54.81,23.655 C55.1900019,23.5449995 55.4849989,23.3650013 55.695,23.115 C55.905001,22.8649988 56.0449996,22.5150023 56.115,22.065 C56.1850003,21.6149978 56.22,21.0400035 56.22,20.34 L56.22,16.5 C56.22,15.3399942 56.2050001,14.3850038 56.175,13.635 C56.1449998,12.8849963 56.0900004,12.3700014 56.01,12.09 C55.9099995,11.6299977 55.6800018,11.3150009 55.32,11.145 C54.9599982,10.9749992 54.280005,10.89 53.28,10.89 L53.28,9.84 L59.16,8.7 L59.16,20.13 Z M55.71,2.61 C55.71,2.0899974 55.8899982,1.6500018 56.25,1.29 C56.6100018,0.9299982 57.0499974,0.75 57.57,0.75 C58.0900026,0.75 58.5299982,0.9299982 58.89,1.29 C59.2500018,1.6500018 59.43,2.0899974 59.43,2.61 C59.43,3.1300026 59.2500018,3.5699982 58.89,3.93 C58.5299982,4.2900018 58.0900026,4.47 57.57,4.47 C57.0499974,4.47 56.6100018,4.2900018 56.25,3.93 C55.8899982,3.5699982 55.71,3.1300026 55.71,2.61 L55.71,2.61 Z M77.73,22.41 C77.0099964,23.2900044 76.0800057,23.9749976 74.94,24.465 C73.7999943,24.9550025 72.5700066,25.2 71.25,25.2 C70.1899947,25.2 69.2150045,25.005002 68.325,24.615 C67.4349956,24.2249981 66.6700032,23.6750036 66.03,22.965 C65.3899968,22.2549965 64.8950018,21.400005 64.545,20.4 C64.1949983,19.399995 64.02,18.2900061 64.02,17.07 C64.02,15.7899936 64.219998,14.6350052 64.62,13.605 C65.020002,12.5749949 65.5849964,11.6950037 66.315,10.965 C67.0450037,10.2349964 67.9249949,9.67500195 68.955,9.285 C69.9850052,8.89499805 71.1199938,8.7 72.36,8.7 C73.1400039,8.7 73.8499968,8.76499935 74.49,8.895 C75.1300032,9.02500065 75.6849977,9.20499885 76.155,9.435 C76.6250024,9.66500115 76.9899987,9.94499835 77.25,10.275 C77.5100013,10.6050017 77.64,10.9599981 77.64,11.34 C77.64,11.740002 77.5100013,12.0499989 77.25,12.27 C76.9899987,12.4900011 76.6300023,12.6 76.17,12.6 C75.8099982,12.6 75.5100012,12.5250008 75.27,12.375 C75.0299988,12.2249993 74.7200019,11.8900026 74.34,11.37 C73.939998,10.9099977 73.5550019,10.585001 73.185,10.395 C72.8149982,10.2049991 72.3400029,10.11 71.76,10.11 C70.3399929,10.11 69.2650037,10.6599945 68.535,11.76 C67.8049964,12.8600055 67.44,14.4799893 67.44,16.62 C67.44,18.9200115 67.844996,20.6649941 68.655,21.855 C69.4650041,23.045006 70.6499922,23.64 72.21,23.64 C73.0500042,23.64 73.8399963,23.4750017 74.58,23.145 C75.3200037,22.8149984 76.0699962,22.2800037 76.83,21.54 L77.73,22.41 Z M85.47,20.13 C85.47,20.9100039 85.5049996,21.5349977 85.575,22.005 C85.6450003,22.4750024 85.779999,22.8449987 85.98,23.115 C86.180001,23.3850014 86.4599982,23.5699995 86.82,23.67 C87.1800018,23.7700005 87.659997,23.8299999 88.26,23.85 L88.26,24.9 L79.65,24.9 L79.65,23.85 C80.250003,23.8299999 80.7399981,23.7650006 81.12,23.655 C81.5000019,23.5449995 81.7949989,23.3650013 82.005,23.115 C82.215001,22.8649988 82.3549996,22.5150023 82.425,22.065 C82.4950003,21.6149978 82.53,21.0400035 82.53,20.34 L82.53,16.5 C82.53,15.3399942 82.5150001,14.3850038 82.485,13.635 C82.4549998,12.8849963 82.4000004,12.3700014 82.32,12.09 C82.2199995,11.6299977 81.9900018,11.3150009 81.63,11.145 C81.2699982,10.9749992 80.590005,10.89 79.59,10.89 L79.59,9.84 L85.47,8.7 L85.47,20.13 Z M82.02,2.61 C82.02,2.0899974 82.1999982,1.6500018 82.56,1.29 C82.9200018,0.9299982 83.3599974,0.75 83.88,0.75 C84.4000026,0.75 84.8399982,0.9299982 85.2,1.29 C85.5600018,1.6500018 85.74,2.0899974 85.74,2.61 C85.74,3.1300026 85.5600018,3.5699982 85.2,3.93 C84.8399982,4.2900018 84.4000026,4.47 83.88,4.47 C83.3599974,4.47 82.9200018,4.2900018 82.56,3.93 C82.1999982,3.5699982 82.02,3.1300026 82.02,2.61 L82.02,2.61 Z M98.61,8.7 C99.7500057,8.7 100.829995,8.90499795 101.85,9.315 C102.870005,9.72500205 103.764996,10.2899964 104.535,11.01 C105.305004,11.7300036 105.914998,12.5849951 106.365,13.575 C106.815002,14.565005 107.04,15.6499941 107.04,16.83 C107.04,18.0500061 106.815002,19.1699949 106.365,20.19 C105.914998,21.2100051 105.305004,22.0899963 104.535,22.83 C103.764996,23.5700037 102.870005,24.1499979 101.85,24.57 C100.829995,24.9900021 99.7500057,25.2 98.61,25.2 C97.4899944,25.2 96.425005,24.9950021 95.415,24.585 C94.4049949,24.174998 93.5200038,23.6000037 92.76,22.86 C91.9999962,22.1199963 91.4000022,21.2350052 90.96,20.205 C90.5199978,19.1749949 90.3,18.0500061 90.3,16.83 C90.3,15.6499941 90.5199978,14.560005 90.96,13.56 C91.4000022,12.559995 91.9999962,11.7000036 92.76,10.98 C93.5200038,10.2599964 94.4049949,9.700002 95.415,9.3 C96.425005,8.899998 97.4899944,8.7 98.61,8.7 L98.61,8.7 Z M98.61,10.14 C97.8699963,10.14 97.1950031,10.2999984 96.585,10.62 C95.974997,10.9400016 95.4550022,11.3949971 95.025,11.985 C94.5949979,12.575003 94.2650012,13.2849959 94.035,14.115 C93.8049989,14.9450042 93.69,15.859995 93.69,16.86 C93.69,17.9000052 93.8049989,18.8399958 94.035,19.68 C94.2650012,20.5200042 94.5949979,21.2349971 95.025,21.825 C95.4550022,22.415003 95.969997,22.8699984 96.57,23.19 C97.170003,23.5100016 97.8499962,23.67 98.61,23.67 C99.3700038,23.67 100.059997,23.5100016 100.68,23.19 C101.300003,22.8699984 101.829998,22.410003 102.27,21.81 C102.710002,21.209997 103.049999,20.4900042 103.29,19.65 C103.530001,18.8099958 103.65,17.8800051 103.65,16.86 C103.65,15.859995 103.530001,14.9500041 103.29,14.13 C103.049999,13.3099959 102.710002,12.605003 102.27,12.015 C101.829998,11.4249971 101.300003,10.9650017 100.68,10.635 C100.059997,10.3049984 99.3700038,10.14 98.61,10.14 L98.61,10.14 Z M122.37,13.8 C122.37,12.9799959 122.35,12.3350024 122.31,11.865 C122.27,11.3949977 122.165001,11.0350013 121.995,10.785 C121.824999,10.5349987 121.575002,10.3650005 121.245,10.275 C120.914998,10.1849996 120.460003,10.1100003 119.88,10.05 L119.88,9 L125.31,9 L125.31,18.21 C125.31,19.3500057 125.325,20.2799964 125.355,21 C125.385,21.7200036 125.43,22.2599982 125.49,22.62 C125.53,22.8800013 125.595,23.0849993 125.685,23.235 C125.775,23.3850008 125.909999,23.5049996 126.09,23.595 C126.270001,23.6850005 126.504999,23.7449999 126.795,23.775 C127.085001,23.8050002 127.459998,23.82 127.92,23.82 L127.92,24.87 L122.97,25.23 L122.64,21.63 L122.52,21.63 C121.759996,22.8700062 120.885005,23.7749972 119.895,24.345 C118.904995,24.9150029 117.870005,25.2 116.79,25.2 C115.949996,25.2 115.135004,25.0400016 114.345,24.72 C113.554996,24.3999984 112.960002,23.9700027 112.56,23.43 C112.219998,22.9899978 111.975001,22.3800039 111.825,21.6 C111.674999,20.8199961 111.6,19.8100062 111.6,18.57 L111.6,13.8 C111.6,12.9799959 111.58,12.3350024 111.54,11.865 C111.5,11.3949977 111.395001,11.0350013 111.225,10.785 C111.054999,10.5349987 110.805002,10.3650005 110.475,10.275 C110.144998,10.1849996 109.690003,10.1100003 109.11,10.05 L109.11,9 L114.54,9 L114.54,17.19 C114.54,19.3700109 114.794997,20.9499951 115.305,21.93 C115.815003,22.9100049 116.629994,23.4 117.75,23.4 C119.510009,23.4 120.879995,22.2500115 121.86,19.95 C121.960001,19.7099988 122.04,19.490001 122.1,19.29 C122.16,19.089999 122.21,18.8700012 122.25,18.63 C122.29,18.3899988 122.32,18.1200015 122.34,17.82 C122.36,17.5199985 122.37,17.1600021 122.37,16.74 L122.37,13.8 Z M131.16,24.9 L130.5,24.9 L130.5,19.74 L131.25,19.74 C132.030004,22.5600141 133.44999,23.97 135.51,23.97 C136.310004,23.97 136.944998,23.775002 137.415,23.385 C137.885002,22.9949981 138.12,22.400004 138.12,21.6 C138.12,21.2999985 138.075,21.0450011 137.985,20.835 C137.895,20.624999 137.725001,20.4050012 137.475,20.175 C137.224999,19.9449989 136.875002,19.6800015 136.425,19.38 C135.974998,19.0799985 135.380004,18.7000023 134.64,18.24 C133.959997,17.8199979 133.370002,17.4300018 132.87,17.07 C132.369998,16.7099982 131.950002,16.3450019 131.61,15.975 C131.269998,15.6049982 131.015001,15.2100021 130.845,14.79 C130.674999,14.3699979 130.59,13.8800028 130.59,13.32 C130.59,12.6399966 130.704999,12.0150029 130.935,11.445 C131.165001,10.8749972 131.479998,10.390002 131.88,9.99 C132.280002,9.589998 132.749997,9.27500115 133.29,9.045 C133.830003,8.81499885 134.419997,8.7 135.06,8.7 C135.600003,8.7 136.159997,8.78499915 136.74,8.955 C137.320003,9.12500085 137.829998,9.3499986 138.27,9.63 L138.87,9 L139.44,9 L139.44,13.32 L138.66,13.32 C138.219998,12.0999939 137.740003,11.2300026 137.22,10.71 C136.699997,10.1899974 136.060004,9.93 135.3,9.93 C134.619997,9.93 134.075002,10.1099982 133.665,10.47 C133.254998,10.8300018 133.05,11.3299968 133.05,11.97 C133.05,12.3100017 133.104999,12.6049988 133.215,12.855 C133.325001,13.1050013 133.499999,13.3499988 133.74,13.59 C133.980001,13.8300012 134.284998,14.0749988 134.655,14.325 C135.025002,14.5750013 135.469997,14.8599984 135.99,15.18 C136.850004,15.7200027 137.584997,16.1999979 138.195,16.62 C138.805003,17.0400021 139.299998,17.454998 139.68,17.865 C140.060002,18.2750021 140.339999,18.6999978 140.52,19.14 C140.700001,19.5800022 140.79,20.0799972 140.79,20.64 C140.79,22.0600071 140.330005,23.174996 139.41,23.985 C138.489995,24.7950041 137.280007,25.2 135.78,25.2 C134.219992,25.2 132.880006,24.7500045 131.76,23.85 L131.16,24.9 Z" id="logo-dark" fill="#212121"></path>
    </g>
</svg>