<?xml version="1.0" encoding="UTF-8" standalone="no"?>
<svg width="156px" height="26px" viewBox="0 0 156 26" version="1.1" xmlns="http://www.w3.org/2000/svg" xmlns:xlink="http://www.w3.org/1999/xlink">
    <defs>
    	<mask id="mask" maskUnits="objectBoundingBox">
	    	<path fill="#FFFFFF" d="M3,0H0C0,0,1.1-0.1,3,0z"/>
			<path fill="#FFFFFF" d="M4.3,0C3.8,0,3.4,0,3,0H78h75.1c-0.4,0-0.9,0-1.3,0H4.3z"/>
			<path fill="#FFFFFF" d="M156,0h-2.9C155-0.1,156,0,156,0z"/>
			<path fill="#FFFFFF" d="M151.8,0c-7.6,0.2-24.6,1.3-44.3,6.9c-21.2,6.6-29.5,19-29.5,19s-8.3-12.5-29.5-19C28.9,1.3,11.9,0.2,4.3,0
				H151.8z"/>
    	</mask>
    </defs>
    <g>
		<path fill="#FFFFFF" d="M3,0H0C0,0,1.1-0.1,3,0z"/>
		<path fill="#FFFFFF" d="M4.3,0C3.8,0,3.4,0,3,0H78h75.1c-0.4,0-0.9,0-1.3,0H4.3z"/>
		<path fill="#FFFFFF" d="M156,0h-2.9C155-0.1,156,0,156,0z"/>
		<path fill="#FFFFFF" d="M151.8,0c-7.6,0.2-24.6,1.3-44.3,6.9c-21.2,6.6-29.5,19-29.5,19s-8.3-12.5-29.5-19C28.9,1.3,11.9,0.2,4.3,0
			H151.8z"/>
	</g>
</svg>